<?xml version="1.0" standalone="no"?>
<!DOCTYPE svg PUBLIC "-//W3C//DTD SVG 20010904//EN"
 "http://www.w3.org/TR/2001/REC-SVG-20010904/DTD/svg10.dtd">
<svg version="1.0" xmlns="http://www.w3.org/2000/svg"
 width="122.000000pt" height="122.000000pt" viewBox="0 0 122.000000 122.000000"
 preserveAspectRatio="xMidYMid meet">

<g transform="translate(0.000000,122.000000) scale(0.100000,-0.100000)"
fill="#000000" stroke="none">
<path d="M540 1014 c-137 -33 -159 -40 -176 -55 -11 -9 -33 -24 -50 -32 -17
-9 -43 -32 -58 -52 -15 -19 -38 -45 -51 -58 -13 -12 -42 -57 -63 -99 -33 -65
-41 -92 -47 -163 -4 -49 -3 -98 3 -117 6 -18 16 -62 23 -97 16 -85 39 -110
107 -118 46 -5 56 -3 77 17 l24 23 -34 66 c-56 110 -64 142 -56 234 9 96 24
128 87 191 37 37 164 116 189 116 3 0 12 3 21 7 8 3 52 3 97 1 126 -8 198 -55
301 -197 62 -85 64 -195 5 -318 -21 -45 -39 -85 -39 -88 0 -21 62 -55 100 -55
38 0 100 62 100 100 0 14 5 41 10 60 19 63 13 209 -9 272 -48 133 -108 217
-195 272 -33 21 -65 45 -71 53 -7 9 -37 18 -76 23 -35 4 -77 12 -92 18 -34 14
-55 14 -127 -4z"/>
<path d="M544 611 c-30 -18 -54 -64 -54 -102 0 -33 33 -88 59 -98 60 -25 90
-21 132 19 31 29 39 44 39 71 0 54 -9 72 -47 102 -43 32 -85 35 -129 8z"/>
</g>
</svg>
